# xmcd
# Track frame offsets:
# 150
# 11337
# 21925
# 32910
# 47440
# 58620
# 71990
# 85110
# 95055
# 107652
# 119142
# 130317
#
# Disc length: 1888 seconds
# Revision: 0
# Processed by: cddbd v1.5.1PL0 Copyright (c) Steve Scherf et al.
# Submitted via: VisiTrax 2.9.9.209 - For more info visit www.synapsa.com
#
DISCID=a5075e0c
DTITLE=Arne Benoni - Arne Benoni
DYEAR=4
DGENRE=
TTITLE0=Welcome to my world
TTITLE1=I'm gonna change everything
TTITLE2=He'll have to go
TTITLE3=Distant drums
TTITLE4=Anne Marie
TTITLE5=I love you because
TTITLE6=Four walls
TTITLE7=Billy bayou
TTITLE8=Am I losing you
TTITLE9=I guess I'm crazy
TTITLE10=Youder comes a sucker
TTITLE11=Adios amigo
EXTD=
EXTT0=
EXTT1=
EXTT2=
EXTT3=
EXTT4=
EXTT5=
EXTT6=
EXTT7=
EXTT8=
EXTT9=
EXTT10=
EXTT11=
PLAYORDER=
